inDegrees=yes
name=ik_S47_A08_T01
DataType=double
version=3
OpenSimVersion=4.3-2021-08-27-4bc7ad9
endheader
time	pelvis_tilt	pelvis_list	pelvis_rotation	pelvis_tx	pelvis_ty	pelvis_tz	hip_flexion_r	hip_adduction_r	hip_rotation_r	knee_angle_r	knee_angle_r_beta	ankle_angle_r	subtalar_angle_r	mtp_angle_r	hip_flexion_l	hip_adduction_l	hip_rotation_l	knee_angle_l	knee_angle_l_beta	ankle_angle_l	subtalar_angle_l	mtp_angle_l	lumbar_extension	lumbar_bending	lumbar_rotation	arm_flex_r	arm_add_r	arm_rot_r	elbow_flex_r	pro_sup_r	wrist_flex_r	wrist_dev_r	arm_flex_l	arm_add_l	arm_rot_l	elbow_flex_l	pro_sup_l	wrist_flex_l	wrist_dev_l
12.21999999999983	-13.76012184947377	-4.977219325898108	36.71274595275413	0	0.9399999999999999	0	40.78651131259978	-11.07787985253588	-10.56050319876105	51.29771994734656	0.8953141118471698	0	0	0	40.78651131259978	-11.07787985253588	-10.56050319876105	51.29771994734656	0.8953141118471698	0	0	0	-14.80632255974154	3.334548444395761	-8.642398595695225	48.56572121872817	-1.051897537441113	20.67352451566723	33.72388045091311	106.4074767543405	0	0	98.91427743097894	-6.644886829537097	8.811918745863657	97.02674559241993	77.59800285088245	0	0
12.23999999999983	-13.76959755693744	-4.976747078589056	36.71412933132648	0	0.9399999999999999	0	40.78434914287846	-11.08046448908148	-10.56126718162884	51.29653258584046	0.8952933884794768	0	0	0	40.78434914287846	-11.08046448908148	-10.56126718162884	51.29653258584046	0.8952933884794768	0	0	0	-14.81327506115403	3.338608776578657	-8.639653568194635	48.6176241205292	-1.049621644415778	20.65410467995951	33.61116445325437	106.4345255916123	0	0	98.87504722545643	-6.651959491217303	8.737393511939651	97.09215744254185	77.59369128581567	0	0
12.25999999999983	-13.76689193778896	-4.973163229263675	36.70340441488361	0	0.9399999999999999	0	40.79050425971882	-11.07720743007938	-10.55983913364668	51.30039399669956	0.8953607828127403	0	0	0	40.79050425971882	-11.07720743007938	-10.55983913364668	51.30039399669956	0.8953607828127403	0	0	0	-14.80772818352341	3.339739206640994	-8.625751806294668	48.62612934509348	-1.051721754468815	20.6657203829736	33.59513535273088	106.4227550366776	0	0	98.84940243859629	-6.642515576140768	8.741417177225749	97.09504778875065	77.52641920198222	0	0
12.27999999999983	-13.76865398846228	-4.97858909202503	36.69902067499527	0	0.9399999999999999	0	40.79347849963008	-11.07392021003838	-10.5588438131127	51.302080609067	0.895390219751757	0	0	0	40.79347849963008	-11.07392021003838	-10.5588438131127	51.302080609067	0.895390219751757	0	0	0	-14.81188729759715	3.337572006365298	-8.624010607932096	48.63000298795043	-1.042990462314211	20.6740053152308	33.62200734737267	106.4057288128499	0	0	98.7987099384666	-6.625452223345103	8.728031044075994	97.08726184319038	77.51440408555138	0	0
12.29999999999983	-13.77204976648986	-4.97905368635533	36.69655092335298	0	0.9399999999999999	0	40.79580395846019	-11.0711342905433	-10.55802724550669	51.30337880803865	0.8954128775981584	0	0	0	40.79580395846019	-11.0711342905433	-10.55802724550669	51.30337880803865	0.8954128775981584	0	0	0	-14.81462325502081	3.340107869116233	-8.621822573462989	48.63367889142216	-1.053303666250996	20.67506435637857	33.64055408892905	106.3930280130567	0	0	98.7689629599369	-6.626433262687176	8.733002000630373	97.05631600153428	77.49109379885812	0	0
12.31999999999983	-13.76989753662346	-4.978461176610636	36.68629903863124	0	0.9399999999999999	0	40.79680278004466	-11.0702536946673	-10.5577324618092	51.30397088759926	0.8954232113359247	0	0	0	40.79680278004466	-11.0702536946673	-10.5577324618092	51.30397088759926	0.8954232113359247	0	0	0	-14.81211521074906	3.339586500103694	-8.618907697145092	48.62111939618794	-1.027622965723199	20.66376511023067	33.60517511824669	106.3769304841736	0	0	98.59478914107562	-6.633619636940553	8.81260660996136	96.96709610216175	77.37852131707426	0	0
12.33999999999983	-13.79143124397015	-4.974311971493862	36.66683991971465	0	0.9399999999999999	0	40.79723034396557	-11.06988319179506	-10.55760769327378	51.30422836614716	0.8954277051843388	0	0	0	40.79723034396557	-11.06988319179506	-10.55760769327378	51.30422836614716	0.8954277051843388	0	0	0	-14.8273501913383	3.358276028579092	-8.622208720942302	48.67063782098222	-1.019539891181158	20.66849181881607	33.60800525140935	106.3825326125596	0	0	98.46467282823305	-6.678396793106717	8.87645729393576	96.87039295851707	77.28925825151464	0	0
12.35999999999983	-13.78317261922968	-4.96287384270409	36.63837243830335	0	0.9399999999999999	0	40.79829430073432	-11.06894734161235	-10.55729412194506	51.30485999782089	0.8954387292367053	0	0	0	40.79829430073432	-11.06894734161235	-10.55729412194506	51.30485999782089	0.8954387292367053	0	0	0	-14.81409277417218	3.366431930221235	-8.627657483233712	48.62387226948628	-0.9634108296586639	20.6709652178655	33.58565529675604	106.3969480957061	0	0	98.22223858118483	-6.72363217913481	8.958817112182654	96.57066216299422	77.03092167415807	0	0
12.37999999999982	-13.79600774700817	-4.960198272043525	36.61876494193383	0	0.9399999999999999	0	40.79924241783303	-11.06811457506879	-10.55701493153079	51.30542338934386	0.895448562273759	0	0	0	40.79924241783303	-11.06811457506879	-10.55701493153079	51.30542338934386	0.895448562273759	0	0	0	-14.82224535807677	3.377804759325648	-8.625086552494189	48.6389301279684	-0.9397805845627882	20.67929426261651	33.57462515690982	106.4024724862996	0	0	97.89402979611543	-6.744051000681279	9.079258070963569	96.23299179450366	76.66598236361105	0	0
12.39999999999982	-13.79707094173733	-4.966386334201074	36.61144220303377	0	0.9399999999999999	0	40.80051002493662	-11.06699717982448	-10.5566407284163	51.30617362003943	0.8954616562695462	0	0	0	40.80051002493662	-11.06699717982448	-10.5566407284163	51.30617362003943	0.8954616562695462	0	0	0	-14.82464763331165	3.373742491333254	-8.612150397483136	48.66436121313026	-0.8989380158312945	20.63297939991157	33.56997495123802	106.4115192204677	0	0	96.75870796433566	-6.843298178280325	9.609436258206472	96.22022635716733	76.07608950879803	0	0
12.41999999999982	-13.79340886521739	-4.947555908676462	36.57193993065834	0	0.9399999999999999	0	40.80192282487842	-11.06575265802587	-10.55622380231368	51.30700981861409	0.8954762506878745	0	0	0	40.80192282487842	-11.06575265802587	-10.55622380231368	51.30700981861409	0.8954762506878745	0	0	0	-14.80758061843266	3.383805203709699	-8.586651395851652	48.62926357133583	-0.9151538112891832	20.66643501014261	33.58389261999952	106.3940269657196	0	0	95.95136387765298	-6.905308770462854	9.970033398714872	95.70972678127225	75.07699659771923	0	0
12.43999999999982	-13.79085282812882	-4.930164631229471	36.53086070838511	0	0.9399999999999999	0	40.80335091876761	-11.06449576246528	-10.55580254655758	51.30785518191163	0.895491005060792	0	0	0	40.80335091876761	-11.06449576246528	-10.55580254655758	51.30785518191163	0.895491005060792	0	0	0	-14.79116485955219	3.389936647917263	-8.548195044174575	48.61926424136087	-0.8904955632970455	20.63581006067017	33.57416268293709	106.397917821491	0	0	95.05756951885073	-6.946222437376504	10.40030860563605	94.92483035782645	73.92398540293145	0	0
